<svg width="448" height="512" xmlns="http://www.w3.org/2000/svg" role="img" class="svg-inline--fa fa-check-square fa-w-14" data-icon="check-square" data-prefix="far" focusable="false" aria-hidden="true">

 <g>
  <title>Layer 1</title>
  <path id="svg_1" d="m400,32l-352,0c-26.51,0 -48,21.49 -48,48l0,352c0,26.51 21.49,48 48,48l352,0c26.51,0 48,-21.49 48,-48l0,-352c0,-26.51 -21.49,-48 -48,-48zm0,400l-352,0l0,-352l352,0l0,352zm-35.864,-241.724l-172.589,171.204c-4.705,4.667 -12.303,4.637 -16.97,-0.068l-90.781,-91.516c-4.667,-4.705 -4.637,-12.303 0.069,-16.971l22.719,-22.536c4.705,-4.667 12.303,-4.637 16.97,0.069l59.792,60.277l141.352,-140.216c4.705,-4.667 12.303,-4.637 16.97,0.068l22.536,22.718c4.667,4.706 4.637,12.304 -0.068,16.971z" fill="#ffffff"/>
 </g>
</svg>